PathFileType	4	(X/Y/Z)	c:/Users/goper/Files/vsCode/490R/osim_files/C17/C17_Slow_05.trc
DataRate	CameraRate	NumFrames	NumMarkers	Units                	OrigDataRate	OrigDataStartFrame	OrigNumFrames
250.00	250.00	8	36	mm	250.0	1631	3261
                Frame#	Time	LPSIS			LASIS			LTH1			LTH2			LTH3			LTH4			LLFE			LMFE			LSH1			LSH2			LSH3			LSH4			LLMAL			LMMAL			LCAL			LMTP5			LTOE			LMTP1			RPSIS			RASIS			RTH1			RTH2			RTH3			RTH4			RLFE			RMFE			RSH1			RSH2			RSH3			RSH4			RLMAL			RMMAL			RCAL			RMTP1			RTOE			RMTP5		
		X1	Y1	Z1	X2	Y2	Z2	X3	Y3	Z3	X4	Y4	Z4	X5	Y5	Z5	X6	Y6	Z6	X7	Y7	Z7	X8	Y8	Z8	X9	Y9	Z9	X10	Y10	Z10	X11	Y11	Z11	X12	Y12	Z12	X13	Y13	Z13	X14	Y14	Z14	X15	Y15	Z15	X16	Y16	Z16	X17	Y17	Z17	X18	Y18	Z18	X19	Y19	Z19	X20	Y20	Z20	X21	Y21	Z21	X22	Y22	Z22	X23	Y23	Z23	X24	Y24	Z24	X25	Y25	Z25	X26	Y26	Z26	X27	Y27	Z27	X28	Y28	Z28	X29	Y29	Z29	X30	Y30	Z30	X31	Y31	Z31	X32	Y32	Z32	X33	Y33	Z33	X34	Y34	Z34	X35	Y35	Z35	X36	Y36	Z36

1631	6.52000	-2207.70044	1094.46680	311.55121	-2407.70825	1048.58435	406.50098	0.00000	0.00000	0.00000	-2378.11597	669.12360	418.18762	-2427.25293	729.42139	428.64648	-2432.77319	684.91559	418.87997	-2409.57983	510.86008	378.57397	-2401.18774	518.24677	256.50284	-2402.22949	278.35788	365.37036	-2390.36230	234.64545	357.58136	-2337.64038	284.07254	369.65240	-2335.87500	240.68236	362.35095	-2336.12402	103.68330	333.82828	-2347.22778	111.79277	246.87547	-2261.08179	63.98414	289.42374	-2450.96875	53.31204	358.37247	-2510.32715	70.59590	289.18744	-2492.59473	53.30353	241.22951	-2213.21704	1088.08545	236.85847	-2394.57959	1052.84448	136.54129	-2377.28735	755.62067	78.09251	-2385.68799	709.50726	83.29203	-2437.56812	764.08936	86.89326	-2438.45581	716.18292	87.94048	-2420.71851	497.54739	91.80775	0.00000	0.00000	0.00000	-2231.64160	397.57608	89.00619	-2211.14233	357.38937	102.98960	-2284.54468	357.13293	94.40567	-2256.08936	325.97879	102.01349	-2095.98022	228.53667	133.45238	-2141.62598	215.04912	216.81882	-2030.16589	241.68376	193.08974	-2196.22339	75.85316	202.12846	-2219.04126	90.06661	154.21428	-2147.96826	101.20750	97.57905
1632	6.52400	-2213.97803	1094.98975	311.59476	-2412.43433	1048.99805	406.67355	0.00000	0.00000	0.00000	-2380.48779	669.62683	418.26801	-2429.97656	729.55884	428.55716	-2435.28076	685.07318	418.83417	-2410.53320	510.93796	378.78766	-2401.70947	518.33813	256.71594	-2402.71582	278.34583	365.46371	-2390.74146	234.67436	357.63474	-2338.16968	284.18863	369.79340	-2336.35498	240.74803	362.47586	-2336.29468	103.78008	333.86322	-2347.32153	111.96508	246.85539	-2261.40723	64.69054	290.22162	-2451.00513	53.30911	358.40060	-2510.38135	70.56316	289.21594	-2492.60278	53.26548	241.22435	-2218.09814	1088.73962	237.19411	-2399.32129	1053.96448	136.79808	-2382.66748	756.56458	77.74949	-2391.92114	710.90735	82.55470	-2443.59302	765.93860	86.27460	-2445.43188	717.81281	87.65573	-2429.31006	498.76059	92.22276	-2439.41870	514.90814	218.92033	-2243.79395	394.91177	88.92423	-2222.59644	355.44846	102.89470	-2296.06323	356.40897	94.43445	-2267.88745	324.65616	102.15304	-2109.22339	225.18259	133.32373	-2155.29663	212.00487	216.52095	-2042.96472	235.72646	193.39777	-2213.79053	74.53199	200.23906	-2236.04199	90.08432	152.54132	-2164.67041	100.06727	96.04068
1633	6.52800	-2218.77295	1095.73865	311.86618	-2417.32739	1049.49414	406.87585	0.00000	0.00000	0.00000	-2382.85327	670.06610	418.33536	-2432.73193	729.69220	428.49304	-2436.80078	684.99048	418.72977	-2411.25708	510.91205	378.96033	-2402.29932	518.45233	256.94229	-2403.29346	278.43442	365.53448	-2391.13330	234.63246	357.70059	-2338.74316	284.25345	369.99393	-2336.80737	240.84535	362.61649	-2336.38208	103.87590	333.91458	-2347.39062	112.12148	246.85426	-2261.38745	65.05794	289.72281	-2451.22046	53.43002	358.39560	-2510.38550	70.48859	289.22675	-2493.30444	54.08092	241.57889	-2222.83936	1089.57458	237.45116	-2403.91528	1055.00146	137.06807	-2389.59595	757.72760	78.30361	-2399.61597	712.09100	82.88933	-2450.26904	767.60175	86.16977	-2452.17969	719.44824	87.28477	-2439.20483	500.35443	91.96935	-2448.21094	516.62067	218.93918	-2254.00146	393.55176	88.85172	-2233.97363	353.47467	102.86116	-2307.14771	355.63159	94.26697	-2279.94287	323.35251	102.28030	-2122.63623	221.76241	133.03888	-2169.02246	208.89915	216.30086	-2055.85181	229.99043	193.34782	-2231.31519	73.40400	198.56226	-2253.34473	90.17325	150.97569	-2181.52148	98.78732	94.51025
1634	6.53200	-2223.57690	1096.35181	312.07922	-2422.05664	1049.88025	407.05991	0.00000	0.00000	0.00000	-2385.11621	670.59424	418.43378	-2435.89941	730.17261	428.25034	-2440.00488	685.49719	418.71423	-2412.37036	511.11237	379.18008	-2402.88159	518.53760	257.17401	-2403.72729	278.48236	365.56717	-2391.53857	234.65402	357.78073	-2339.17017	284.36090	370.14697	-2337.22729	240.97391	362.77261	-2336.49048	103.98790	333.94730	-2347.46362	112.28842	246.92088	-2261.53955	64.93285	290.18610	-2451.24097	53.43716	358.40775	-2510.44507	70.47897	289.24884	-2492.65869	53.25601	241.20856	-2227.63135	1090.37158	237.67415	-2408.41968	1055.90601	137.31758	-2395.86646	758.97534	77.43658	-2406.77393	713.46460	83.17313	-2456.70923	769.14740	85.90713	-2459.03906	720.89508	86.93404	-2448.26831	501.73480	92.10465	-2456.97021	518.33691	218.98256	-2264.92896	391.86969	88.82126	0.00000	0.00000	0.00000	-2318.33154	354.87521	94.20399	-2291.94385	322.09375	102.34509	-2137.22559	217.74397	133.04091	-2183.02930	205.70341	215.94212	-2068.96924	224.16956	193.20917	-2248.87646	72.21898	197.06227	-2270.04077	89.95538	149.44083	-2198.25073	97.52461	92.98340
1635	6.53600	-2228.37646	1096.88354	312.34000	-2426.95947	1050.34351	407.27850	0.00000	0.00000	0.00000	-2387.34644	671.09198	418.46164	-2437.23218	728.96222	428.92032	-2442.32788	685.66406	418.66077	-2413.08740	511.17157	379.36844	-2403.37183	518.63342	257.38965	-2404.10425	278.50378	365.69095	-2391.86475	234.61617	357.85507	-2339.57446	284.51294	370.32428	-2337.62695	241.09926	362.87704	-2336.55591	104.10403	333.98242	-2347.45190	112.38795	247.13350	-2261.29517	64.31651	289.44705	-2451.27295	53.44791	358.40878	-2510.43066	70.39566	289.25992	-2493.48022	54.20083	241.59860	-2232.42114	1090.96790	237.88971	-2413.03442	1056.81970	137.59116	-2402.65088	760.05762	78.00581	-2413.25562	714.51453	82.50452	-2463.25366	770.71576	85.77116	-2466.05127	722.21753	86.83055	-2457.31592	503.08749	92.26928	-2465.62524	519.90027	219.07568	-2275.85059	390.26312	88.71511	0.00000	0.00000	0.00000	-2329.87524	354.16412	94.20978	-2303.99487	320.76126	102.39556	-2150.98779	214.01079	132.73776	-2197.03931	202.53850	215.67288	-2082.22070	218.12476	192.83640	-2266.30176	71.12482	195.80228	-2286.77002	90.17343	147.88052	-2215.03271	95.87438	91.73686
1636	6.54000	-2233.08789	1097.36218	312.49155	-2431.68921	1050.69580	407.49026	0.00000	0.00000	0.00000	-2389.96143	671.46741	418.51740	-2439.81494	729.07941	428.90335	-2443.80664	685.47882	418.57855	-2413.98608	511.27975	379.55295	-2403.14331	518.69647	257.62799	-2404.48022	278.48715	365.83768	-2391.62988	234.23598	357.09192	-2339.89380	284.62134	370.45755	-2337.97437	241.19487	362.97153	-2336.63306	104.23335	334.01297	-2347.54883	112.47581	246.93260	-2261.28687	64.43309	289.41788	-2451.28369	53.44116	358.40350	-2510.46655	70.34427	289.26010	-2492.72388	53.23357	241.18645	-2237.02905	1091.69604	237.99300	-2417.69434	1057.71289	137.83704	-2408.95581	761.24646	77.00156	-2419.29688	715.89014	81.58250	-2469.78857	772.09784	85.47133	-2471.35547	724.58014	85.76912	-2466.12085	504.35513	92.92516	-2474.23853	521.38507	219.24414	-2286.70190	388.66852	88.65389	0.00000	0.00000	0.00000	-2341.45435	353.45032	94.18104	-2312.17529	317.62863	102.90472	-2164.94409	210.17088	132.44952	-2211.10815	199.35858	215.28635	-2096.10913	212.20135	192.46809	-2283.16187	70.07413	194.72437	-2305.31348	91.17353	146.64026	-2233.16968	94.23528	90.78461
1637	6.54400	-2237.70776	1097.93225	312.59070	-2436.50513	1051.06445	407.73029	0.00000	0.00000	0.00000	-2392.87085	671.58856	418.54648	-2442.46387	729.24756	428.85886	-2446.00879	685.64966	418.58600	-2414.80054	511.39090	379.72568	-2404.50024	518.58112	258.82672	-2404.92798	278.56277	365.96201	-2391.92847	234.29478	357.18536	-2340.30737	284.73865	370.61627	-2338.34351	241.27856	363.08221	-2336.71069	104.35411	334.02945	-2347.60938	112.62333	246.99684	-2262.03906	65.32608	289.09467	-2451.30249	53.42831	358.42505	-2510.79980	70.51475	289.30078	-2492.77661	53.25280	241.19185	-2241.52026	1092.48792	238.04175	-2422.33887	1058.50586	138.12495	-2415.60547	762.23901	77.55586	-2427.10059	716.90698	82.08884	-2476.27441	773.59351	85.32511	0.00000	0.00000	0.00000	-2475.18555	505.84796	92.53275	-2478.90308	520.33368	218.82674	-2297.67847	386.97162	88.69433	0.00000	0.00000	0.00000	-2352.96289	352.72412	94.15422	-2324.23804	316.27283	102.92059	-2179.21167	206.16898	132.12326	-2225.49731	196.15668	214.93254	-2109.74756	205.96112	191.77710	-2300.87646	69.06049	193.65060	-2322.69702	91.06319	145.66316	-2250.36768	92.51502	89.75112
1638	6.54800	-2242.65723	1098.40930	312.71832	-2441.28198	1051.42590	407.99417	0.00000	0.00000	0.00000	-2392.97803	672.99536	419.14606	-2443.35303	728.61432	429.37674	-2448.32129	685.86108	418.56973	-2415.90283	511.64062	379.95203	-2404.04712	518.96588	258.08331	-2405.34180	278.58435	366.08032	-2392.24731	234.41733	357.28616	-2341.43311	285.20697	369.37537	-2338.69629	241.37132	363.19315	-2336.84253	104.53155	334.02655	-2347.71313	112.78189	247.02165	-2262.91040	64.34981	287.95987	-2451.32373	53.42352	358.43073	-2510.52344	70.25876	289.25586	-2492.80151	53.25177	241.20786	-2246.36255	1092.80103	238.25552	-2426.88525	1059.29480	138.38083	-2422.06299	763.28009	77.40259	-2434.80347	718.38824	81.64655	-2482.63379	774.94421	85.09409	-2485.90186	727.58411	85.24311	-2482.50928	506.79443	92.82402	-2487.21045	521.68530	218.92918	-2309.73193	384.75116	89.19241	0.00000	0.00000	0.00000	-2364.46338	352.01755	94.11475	-2336.39819	315.06287	102.81779	-2193.43604	202.23604	131.79065	-2240.02490	192.91823	214.57869	-2124.84351	199.50415	191.83095	-2318.62109	67.96682	192.57996	-2339.97974	90.81679	144.78380	-2267.64697	90.65446	88.83729
